<mxfile host="app.diagrams.net" agent="Mozilla/5.0 (Windows NT 10.0; Win64; x64) AppleWebKit/537.36 (KHTML, like Gecko) Chrome/136.0.0.0 Safari/537.36 Edg/136.0.0.0" version="27.0.6">
  <diagram name="Page-1" id="QcrQODV7_Z1oxu3PDG_u">
    <mxGraphModel dx="1552" dy="568" grid="1" gridSize="10" guides="1" tooltips="1" connect="1" arrows="1" fold="1" page="1" pageScale="1" pageWidth="850" pageHeight="1100" math="0" shadow="0">
      <root>
        <mxCell id="0" />
        <mxCell id="1" parent="0" />
        <mxCell id="M8XeCEC8gwFkgrF3VgeR-13" value="" style="rounded=0;whiteSpace=wrap;html=1;" vertex="1" parent="1">
          <mxGeometry x="10" y="190" width="560" height="500" as="geometry" />
        </mxCell>
        <mxCell id="M8XeCEC8gwFkgrF3VgeR-1" value="HID Application" style="rounded=0;whiteSpace=wrap;html=1;" vertex="1" parent="1">
          <mxGeometry x="160" y="200" width="240" height="40" as="geometry" />
        </mxCell>
        <mxCell id="M8XeCEC8gwFkgrF3VgeR-2" value="Specific HID Drivers" style="rounded=0;whiteSpace=wrap;html=1;" vertex="1" parent="1">
          <mxGeometry x="160" y="320" width="240" height="40" as="geometry" />
        </mxCell>
        <mxCell id="M8XeCEC8gwFkgrF3VgeR-3" value="Common HID Class Driver" style="rounded=0;whiteSpace=wrap;html=1;" vertex="1" parent="1">
          <mxGeometry x="160" y="360" width="240" height="40" as="geometry" />
        </mxCell>
        <mxCell id="M8XeCEC8gwFkgrF3VgeR-4" value="USB Driver" style="rounded=0;whiteSpace=wrap;html=1;" vertex="1" parent="1">
          <mxGeometry x="160" y="400" width="240" height="40" as="geometry" />
        </mxCell>
        <mxCell id="M8XeCEC8gwFkgrF3VgeR-5" value="Host Controller Driver" style="rounded=0;whiteSpace=wrap;html=1;" vertex="1" parent="1">
          <mxGeometry x="160" y="440" width="240" height="40" as="geometry" />
        </mxCell>
        <mxCell id="M8XeCEC8gwFkgrF3VgeR-14" style="edgeStyle=orthogonalEdgeStyle;rounded=0;orthogonalLoop=1;jettySize=auto;html=1;endArrow=none;startFill=0;" edge="1" parent="1" source="M8XeCEC8gwFkgrF3VgeR-6" target="M8XeCEC8gwFkgrF3VgeR-7">
          <mxGeometry relative="1" as="geometry" />
        </mxCell>
        <mxCell id="M8XeCEC8gwFkgrF3VgeR-6" value="Host Controller" style="rounded=0;whiteSpace=wrap;html=1;" vertex="1" parent="1">
          <mxGeometry x="160" y="560" width="240" height="40" as="geometry" />
        </mxCell>
        <mxCell id="M8XeCEC8gwFkgrF3VgeR-7" value="USB HID Device" style="rounded=0;whiteSpace=wrap;html=1;" vertex="1" parent="1">
          <mxGeometry x="160" y="640" width="240" height="40" as="geometry" />
        </mxCell>
        <mxCell id="M8XeCEC8gwFkgrF3VgeR-8" value="" style="endArrow=none;html=1;rounded=0;strokeColor=default;align=center;verticalAlign=middle;fontFamily=Helvetica;fontSize=11;fontColor=default;labelBackgroundColor=default;" edge="1" parent="1">
          <mxGeometry width="50" height="50" relative="1" as="geometry">
            <mxPoint x="120" y="280" as="sourcePoint" />
            <mxPoint x="560" y="280" as="targetPoint" />
          </mxGeometry>
        </mxCell>
        <mxCell id="M8XeCEC8gwFkgrF3VgeR-9" value="" style="endArrow=none;html=1;rounded=0;strokeColor=default;align=center;verticalAlign=middle;fontFamily=Helvetica;fontSize=11;fontColor=default;labelBackgroundColor=default;" edge="1" parent="1">
          <mxGeometry width="50" height="50" relative="1" as="geometry">
            <mxPoint x="120" y="520" as="sourcePoint" />
            <mxPoint x="560" y="520" as="targetPoint" />
          </mxGeometry>
        </mxCell>
        <mxCell id="M8XeCEC8gwFkgrF3VgeR-10" value="Client Application Layer" style="text;html=1;align=left;verticalAlign=middle;whiteSpace=wrap;rounded=0;" vertex="1" parent="1">
          <mxGeometry x="440" y="200" width="95" height="40" as="geometry" />
        </mxCell>
        <mxCell id="M8XeCEC8gwFkgrF3VgeR-11" value="USB System Layer" style="text;html=1;align=left;verticalAlign=middle;whiteSpace=wrap;rounded=0;" vertex="1" parent="1">
          <mxGeometry x="440" y="380" width="95" height="40" as="geometry" />
        </mxCell>
        <mxCell id="M8XeCEC8gwFkgrF3VgeR-12" value="USB Bus Interface" style="text;html=1;align=left;verticalAlign=middle;whiteSpace=wrap;rounded=0;" vertex="1" parent="1">
          <mxGeometry x="440" y="600" width="95" height="40" as="geometry" />
        </mxCell>
        <mxCell id="M8XeCEC8gwFkgrF3VgeR-15" value="" style="shape=curlyBracket;whiteSpace=wrap;html=1;rounded=1;labelPosition=left;verticalLabelPosition=middle;align=right;verticalAlign=middle;" vertex="1" parent="1">
          <mxGeometry x="90" y="200" width="20" height="300" as="geometry" />
        </mxCell>
        <mxCell id="M8XeCEC8gwFkgrF3VgeR-16" value="" style="shape=curlyBracket;whiteSpace=wrap;html=1;rounded=1;labelPosition=left;verticalLabelPosition=middle;align=right;verticalAlign=middle;" vertex="1" parent="1">
          <mxGeometry x="90" y="550" width="20" height="130" as="geometry" />
        </mxCell>
        <mxCell id="M8XeCEC8gwFkgrF3VgeR-17" value="Software" style="text;html=1;align=center;verticalAlign=middle;whiteSpace=wrap;rounded=0;" vertex="1" parent="1">
          <mxGeometry x="20" y="335" width="60" height="30" as="geometry" />
        </mxCell>
        <mxCell id="M8XeCEC8gwFkgrF3VgeR-18" value="Hardware" style="text;html=1;align=center;verticalAlign=middle;whiteSpace=wrap;rounded=0;" vertex="1" parent="1">
          <mxGeometry x="20" y="600" width="60" height="30" as="geometry" />
        </mxCell>
      </root>
    </mxGraphModel>
  </diagram>
</mxfile>
